<?xml version="1.0" standalone="no"?>
<!DOCTYPE svg PUBLIC "-//W3C//DTD SVG 20010904//EN"
 "http://www.w3.org/TR/2001/REC-SVG-20010904/DTD/svg10.dtd">
<svg version="1.0" xmlns="http://www.w3.org/2000/svg"
 width="1465.000000pt" height="1174.000000pt" viewBox="0 0 1465.000000 1174.000000"
 preserveAspectRatio="xMidYMid meet">
<metadata>
Created by potrace 1.15, written by Peter Selinger 2001-2017
</metadata>
<g transform="translate(0.000000,1174.000000) scale(0.100000,-0.100000)"
fill="#000000" stroke="none">
<path d="M6843 11573 c4 -91 7 -191 7 -220 l0 -54 115 7 115 7 0 -52 c0 -28
-2 -51 -4 -51 -2 0 -23 7 -47 16 -24 9 -87 19 -139 24 -188 15 -360 -39 -495
-157 -34 -30 -92 -106 -115 -152 l-22 -44 -29 54 c-63 115 -150 171 -293 189
-100 12 -163 -1 -255 -52 -42 -25 -55 -28 -62 -17 -6 11 -43 7 -206 -25 -199
-39 -516 -111 -628 -143 l-61 -16 55 -205 c51 -187 57 -203 75 -199 63 14 123
30 138 38 18 9 58 12 58 5 0 -6 100 -436 106 -458 4 -13 -12 -22 -83 -43 -48
-15 -122 -37 -163 -51 -133 -43 -105 -87 -259 412 l-135 436 -29 -6 c-27 -5
-29 -4 -22 17 15 45 17 168 5 213 -17 61 -88 137 -164 177 -58 30 -66 32 -171
32 -109 -1 -111 -1 -175 -39 -88 -51 -122 -86 -165 -170 -66 -131 -46 -243 64
-359 20 -22 45 -42 55 -46 15 -6 0 -16 -66 -44 -48 -19 -111 -43 -141 -53
l-54 -17 74 -195 c40 -108 75 -198 77 -200 2 -2 47 13 100 32 52 20 99 36 104
36 9 0 178 -458 171 -463 -2 -2 -29 -12 -59 -23 -30 -12 -99 -38 -153 -59 -57
-23 -101 -35 -106 -29 -4 5 -45 97 -91 204 -45 107 -98 226 -117 264 -41 81
-107 156 -172 192 -61 34 -187 58 -272 51 -122 -10 -325 -112 -435 -219 l-61
-60 -128 226 c-70 124 -132 226 -139 226 -13 0 -400 -224 -576 -334 -186 -117
-245 -156 -475 -320 -407 -289 -776 -594 -1170 -968 l-220 -209 302 -301 302
-301 78 71 c43 39 122 115 175 169 l98 99 -58 56 c-104 103 -152 209 -126 283
7 21 17 42 22 47 6 6 123 -122 323 -353 l313 -362 -95 -88 c-52 -49 -98 -88
-102 -89 -5 0 60 -74 143 -165 84 -91 156 -165 160 -163 4 2 103 88 220 192
117 103 316 269 444 369 127 99 237 186 245 193 11 10 -8 42 -114 188 -69 97
-130 176 -133 176 -10 0 -80 -48 -102 -70 -9 -9 -38 -32 -64 -50 -47 -31 -49
-32 -66 -14 -9 11 -143 182 -298 381 -250 322 -278 362 -259 367 42 11 98 6
135 -13 36 -19 128 -109 188 -185 l30 -40 45 33 c140 102 274 193 309 211 22
11 40 23 40 25 0 3 -54 86 -119 184 l-120 179 59 31 c33 18 62 36 65 41 12 20
23 8 76 -77 119 -197 336 -545 402 -646 80 -123 84 -102 -39 -183 l-70 -47
119 -174 c65 -95 121 -173 124 -173 3 0 98 58 212 129 207 128 561 326 787
439 186 93 553 245 814 337 246 87 550 185 635 205 28 7 124 30 215 51 239 57
646 139 691 139 24 0 39 5 39 13 0 6 -12 101 -27 211 l-28 199 -75 -6 c-41 -4
-88 -9 -105 -12 l-30 -6 -24 153 c-13 84 -29 159 -35 167 -6 8 15 -1 47 -19
52 -29 70 -33 153 -38 86 -4 97 -3 148 22 30 15 69 43 86 62 17 20 33 35 34
33 2 -2 11 -44 20 -94 46 -245 134 -406 281 -517 75 -57 122 -80 209 -103 61
-17 81 -18 180 -7 61 6 131 18 156 27 39 14 84 15 325 10 154 -3 341 -8 416
-10 l135 -6 12 183 c7 101 12 195 12 209 0 27 0 27 -100 34 l-100 7 0 77 c0
42 11 335 25 651 14 316 25 608 25 648 l0 72 -477 0 -476 0 6 -167z m197 -782
c40 -43 53 -122 48 -283 -3 -110 -7 -140 -24 -173 -38 -73 -108 -71 -137 4
-40 99 -53 294 -27 391 24 90 86 117 140 61z m-3968 -1048 c21 -22 208 -380
208 -397 0 -5 -133 -77 -135 -73 -38 64 -108 191 -159 290 -70 136 -71 141
-28 190 24 28 83 22 114 -10z"/>
<path d="M9234 11313 l-50 -220 76 -12 c135 -23 220 -44 220 -56 0 -6 -27
-126 -60 -266 -33 -139 -81 -344 -107 -454 -26 -110 -48 -201 -49 -203 -1 -2
-61 9 -133 24 -72 15 -133 26 -135 23 -2 -2 -23 -100 -48 -216 -40 -194 -43
-213 -27 -213 45 0 607 -149 904 -240 366 -112 435 -125 615 -117 97 4 131 11
218 41 249 85 423 241 546 490 85 171 101 240 101 426 -1 133 -4 165 -24 230
-78 254 -256 441 -546 575 -97 46 -406 150 -630 214 -140 40 -704 175 -780
187 l-41 6 -50 -219z m1069 -509 c88 -23 146 -55 199 -112 55 -59 63 -90 55
-212 -13 -177 -121 -432 -236 -553 -76 -81 -145 -94 -275 -52 -42 14 -83 25
-90 25 -9 0 31 144 127 460 77 253 145 460 150 460 5 0 36 -7 70 -16z"/>
<path d="M11545 10113 c-65 -14 -124 -39 -148 -62 -42 -38 -82 -100 -96 -150
-15 -53 -16 -157 -1 -195 15 -41 14 -43 -31 -50 -84 -14 -185 -81 -238 -160
-52 -79 -76 -212 -56 -321 29 -152 155 -284 350 -364 64 -26 99 -34 173 -38
l92 -6 32 -59 c59 -110 210 -228 346 -268 23 -7 42 -16 42 -20 0 -3 -14 -19
-31 -36 -39 -36 -84 -132 -94 -199 -28 -187 33 -328 190 -444 93 -69 145 -85
286 -89 155 -5 165 -2 579 180 162 71 383 163 490 204 107 41 218 84 245 94
82 32 102 28 169 -40 33 -33 64 -60 70 -60 6 0 75 64 154 143 l143 143 -143
140 c-326 319 -692 629 -1066 902 -122 89 -224 162 -227 162 -9 0 -243 -339
-235 -342 5 -2 45 -32 90 -68 l82 -64 -5 -46 c-17 -142 -174 -825 -176 -764
-1 43 -25 97 -61 138 -37 42 -116 94 -156 102 l-29 5 45 47 c39 41 210 281
210 296 0 6 -177 133 -193 139 -7 2 27 62 80 143 53 81 100 165 112 201 53
158 5 332 -126 460 -57 56 -168 135 -243 173 -25 12 -47 26 -50 30 -18 26
-221 111 -325 135 -61 14 -203 19 -250 8z"/>
<path d="M6490 8525 c-1441 -105 -2829 -619 -3955 -1464 -271 -203 -668 -549
-815 -709 -36 -39 -200 -214 -365 -389 l-301 -318 40 -35 c22 -19 130 -118
239 -220 483 -448 631 -575 892 -771 1028 -771 2292 -1274 3592 -1429 570 -68
1266 -68 1836 0 829 99 1617 330 2397 703 826 395 1617 988 2249 1684 l93 103
102 -96 c157 -149 277 -235 873 -628 502 -332 745 -550 863 -778 l41 -77 101
35 c124 43 166 64 213 106 79 68 85 133 25 256 -54 112 -105 179 -224 297
-162 159 -392 324 -806 580 -241 149 -433 272 -535 342 -110 75 -286 217 -338
271 l-39 40 119 119 c135 136 252 236 658 563 481 388 680 561 818 713 84 93
177 218 197 267 17 40 28 31 -183 152 -87 50 -178 105 -201 123 l-42 32 -37
-71 c-114 -221 -336 -442 -927 -926 -361 -295 -525 -443 -643 -580 l-56 -65
-73 71 c-587 568 -1243 1029 -1938 1361 -899 430 -1794 668 -2777 738 -254 18
-843 18 -1093 0z m1080 -420 c755 -60 1451 -221 2130 -493 861 -346 1658 -869
2279 -1495 l114 -115 -121 -134 c-131 -145 -437 -450 -572 -569 -324 -288
-743 -587 -1135 -811 -886 -505 -1847 -806 -2895 -904 -269 -25 -881 -30
-1145 -10 -1007 79 -1911 334 -2770 780 -611 318 -1155 711 -1635 1182 l-145
142 93 103 c138 153 398 413 552 553 920 832 2093 1413 3344 1656 307 60 564
92 986 123 146 11 743 5 920 -8z"/>
<path d="M5975 7715 c-5 -2 -44 -11 -85 -20 -41 -10 -102 -30 -136 -45 -92
-41 -271 -166 -345 -239 -97 -97 -379 -484 -379 -520 0 -8 10 -35 23 -60 33
-68 30 -147 -7 -196 -37 -48 -82 -75 -126 -75 -33 0 -37 -4 -77 -77 l-43 -76
21 -33 c50 -81 342 -271 445 -290 31 -6 34 -3 83 70 50 74 51 76 51 151 0 89
19 135 81 195 70 67 116 65 286 -15 114 -53 1308 -861 1398 -945 261 -245 636
-512 1183 -846 186 -113 388 -259 456 -330 25 -27 60 -64 77 -81 37 -40 84
-44 144 -12 185 98 327 318 286 442 -16 47 -46 72 -113 91 -70 20 -349 204
-578 381 -400 309 -546 409 -1088 748 -89 56 -402 267 -695 468 -292 202 -588
404 -657 450 -137 92 -255 201 -285 264 -10 22 -21 65 -23 95 -4 51 -1 59 29
97 58 72 208 116 381 114 l97 -2 27 46 c14 25 25 47 23 49 -2 2 -35 20 -74 40
-38 21 -63 35 -55 33 8 -2 46 -12 83 -22 l68 -18 27 26 c17 17 23 30 17 36
-19 19 -168 72 -253 91 -75 17 -234 26 -267 15z m114 -152 c36 -8 111 -34 166
-57 l100 -41 -105 -7 c-209 -13 -291 -35 -384 -103 -63 -46 -106 -106 -106
-150 0 -44 28 -123 61 -171 33 -49 108 -118 202 -187 37 -27 67 -51 67 -53 0
-10 -214 -324 -221 -324 -5 0 -85 38 -179 85 -184 91 -194 93 -270 54 -82 -41
-120 -121 -120 -253 0 -76 -2 -82 -41 -143 -23 -35 -45 -63 -50 -63 -37 0
-248 129 -316 193 l-31 29 46 73 c32 50 56 76 77 83 46 17 103 69 127 115 28
53 28 141 1 195 l-19 38 74 115 c173 270 285 416 347 454 228 138 372 168 574
118z m113 -895 c51 -42 231 -160 468 -307 215 -133 325 -212 428 -308 90 -84
138 -112 190 -113 17 0 32 -3 32 -6 0 -9 -221 -274 -228 -274 -4 0 -95 68
-202 152 -281 219 -518 382 -705 485 -38 21 -115 65 -170 98 l-101 60 110 154
110 154 12 -30 c7 -16 32 -46 56 -65z"/>
<path d="M5885 6771 c-62 -9 -99 -28 -150 -80 -25 -27 -48 -41 -65 -41 -64 -1
-48 -18 52 -59 57 -23 110 -45 119 -47 12 -4 34 19 80 83 34 48 74 103 87 121
l24 32 -48 -1 c-27 -1 -71 -5 -99 -8z"/>
<path d="M9104 7245 c-38 -20 -96 -56 -129 -80 -60 -45 -107 -65 -156 -65 -15
0 -57 -9 -93 -20 -51 -16 -74 -30 -103 -63 -90 -100 -99 -107 -138 -107 -48 0
-143 -39 -357 -146 -112 -56 -175 -92 -174 -102 1 -9 -136 -84 -399 -217
l-400 -203 158 -108 c87 -60 230 -151 320 -202 89 -51 234 -140 323 -198 88
-57 166 -104 174 -104 7 0 211 64 454 141 242 78 456 146 474 151 37 11 39 16
12 67 l-19 39 117 37 c168 53 167 52 279 70 76 11 121 25 173 51 38 19 70 40
70 46 0 6 -14 35 -32 66 -34 59 -57 150 -58 223 0 55 -41 203 -75 274 -14 28
-56 94 -95 149 -78 107 -81 118 -65 241 l7 60 -74 18 c-102 23 -116 22 -194
-18z m-77 -362 c61 -66 146 -203 181 -292 55 -138 47 -221 -24 -268 -32 -20
-36 -15 -64 77 -28 93 -79 173 -171 266 -77 77 -80 83 -85 135 -4 43 -1 61 15
87 19 29 26 32 67 32 41 0 51 -5 81 -37z m-936 -285 c78 -101 131 -127 261
-128 137 0 185 -27 288 -165 90 -120 138 -163 191 -171 44 -7 104 -51 114 -85
4 -10 14 -19 24 -19 10 0 28 -11 40 -24 l23 -24 -22 -7 c-12 -4 -27 -1 -35 5
-8 7 -15 9 -15 4 0 -5 -4 -15 -9 -23 -8 -13 -12 -13 -27 0 -10 8 -19 10 -21 4
-11 -31 -22 -40 -35 -27 -16 16 -28 15 -28 -3 0 -17 -16 -20 -25 -5 -10 16
-23 12 -30 -11 -5 -16 -12 -19 -31 -15 -17 5 -24 2 -24 -9 0 -18 -12 -19 -28
-3 -13 13 -24 4 -35 -27 -2 -6 -12 -4 -22 5 -10 9 -20 11 -22 5 -11 -32 -21
-39 -37 -26 -9 8 -16 10 -16 5 0 -5 -4 -16 -10 -24 -7 -12 -12 -12 -28 4 -19
17 -20 17 -27 -4 -5 -17 -12 -20 -31 -16 -18 5 -24 2 -24 -10 0 -12 -6 -15
-24 -10 -18 4 -28 1 -35 -11 -8 -15 -12 -16 -22 -5 -19 18 -29 15 -29 -8 0
-23 -10 -26 -29 -7 -8 7 -15 8 -17 2 -14 -34 -22 -39 -40 -24 -10 8 -19 10
-21 4 -11 -32 -21 -39 -37 -26 -9 8 -16 10 -16 5 0 -5 -4 -15 -9 -23 -8 -13
-12 -13 -26 -1 -15 12 -19 12 -30 -4 -9 -11 -19 -15 -27 -10 -7 4 -19 9 -28 9
-8 1 -82 46 -165 101 -82 55 -188 121 -235 148 l-86 49 91 252 90 253 140 70
c77 39 145 71 151 71 7 1 27 -18 45 -41z"/>
<path d="M5465 5391 l-1050 -529 81 -187 c45 -102 85 -189 88 -193 4 -3 41 4
84 17 209 61 1674 535 2356 764 l278 93 -58 49 c-33 27 -84 72 -114 100 -62
57 -581 415 -602 415 -7 -1 -486 -239 -1063 -529z m1276 363 c112 -78 179
-132 179 -142 0 -32 -82 -352 -90 -352 -5 0 -12 5 -15 10 -10 17 -25 11 -25
-10 0 -23 -10 -26 -29 -7 -10 10 -15 8 -27 -7 -11 -16 -17 -17 -26 -8 -18 18
-28 15 -28 -8 0 -23 -10 -26 -29 -7 -8 7 -15 8 -17 2 -14 -34 -22 -39 -40 -24
-10 8 -19 10 -21 4 -11 -31 -22 -39 -36 -26 -13 10 -16 8 -22 -8 -7 -24 -16
-26 -34 -8 -10 10 -15 8 -26 -7 -12 -15 -17 -17 -29 -7 -13 11 -16 8 -22 -13
-7 -29 -14 -32 -33 -13 -10 10 -15 8 -27 -7 -11 -16 -17 -17 -26 -8 -18 18
-28 15 -28 -8 0 -23 -10 -26 -29 -7 -8 7 -15 8 -17 2 -14 -34 -22 -39 -40 -24
-10 8 -19 10 -21 4 -11 -31 -22 -39 -36 -26 -13 10 -16 8 -22 -8 -7 -23 -20
-27 -30 -11 -10 16 -23 12 -30 -11 -6 -19 -8 -19 -25 -4 -17 15 -19 15 -25 -5
-5 -17 -12 -20 -30 -16 -17 4 -27 1 -34 -11 -8 -14 -12 -15 -25 -4 -9 7 -16
10 -16 5 0 -5 -4 -15 -9 -23 -8 -13 -12 -13 -27 0 -10 8 -19 10 -21 4 -11 -31
-22 -40 -35 -27 -18 18 -28 15 -28 -8 0 -23 -10 -26 -29 -7 -8 7 -15 8 -17 2
-13 -32 -23 -40 -36 -27 -18 18 -28 15 -28 -9 0 -12 -5 -19 -12 -16 -7 2 -12
8 -12 13 1 5 47 148 103 317 56 170 101 314 102 320 1 11 671 355 692 357 5 0
89 -57 188 -126z m-973 -301 c-3 -10 -45 -147 -93 -306 -78 -253 -91 -287
-107 -281 -14 4 -18 0 -18 -16 0 -21 -21 -25 -22 -5 0 6 40 143 88 306 80 268
91 298 114 307 37 15 43 14 38 -5z m-290 -377 c-64 -223 -86 -286 -99 -286
-25 0 127 555 156 568 11 5 21 8 23 7 1 -1 -35 -131 -80 -289z m-72 -8 c-36
-139 -69 -263 -72 -276 -5 -16 -12 -21 -25 -17 -14 5 -19 1 -19 -14 0 -24 -10
-27 -29 -8 -8 7 -15 8 -17 2 -14 -36 -22 -39 -43 -21 -21 19 -21 19 -21 -4 0
-19 -4 -21 -25 -16 -18 5 -27 2 -32 -9 -4 -11 -13 -15 -29 -11 -16 4 -26 1
-33 -11 -7 -14 -12 -15 -24 -5 -13 11 -16 10 -22 -7 -7 -24 -16 -26 -34 -8 -8
7 -15 8 -17 2 -13 -33 -22 -39 -38 -26 -9 8 -16 10 -16 5 0 -5 -4 -15 -9 -23
-8 -13 -12 -13 -27 0 -10 8 -19 10 -21 4 -11 -31 -22 -39 -36 -26 -13 10 -17
9 -25 -5 -9 -16 -12 -16 -27 -4 -14 12 -18 12 -26 -1 -5 -8 -9 -18 -9 -23 0
-4 -11 -5 -25 -2 -18 5 -25 2 -25 -9 0 -18 -1 -18 -36 0 -21 10 -45 48 -94
142 l-65 128 490 252 c269 138 491 250 493 248 2 -2 -26 -117 -62 -257z"/>
<path d="M12230 4930 l0 -250 -270 0 -270 0 0 -215 0 -215 270 0 270 0 0 -515
0 -515 235 0 235 0 0 515 0 515 270 0 270 0 0 215 0 215 -270 0 -270 0 0 250
0 250 -235 0 -235 0 0 -250z"/>
<path d="M1823 3432 l-129 -177 60 -46 c34 -25 82 -60 109 -78 26 -18 47 -36
47 -42 0 -11 -494 -745 -520 -773 -21 -22 -32 -17 -135 59 -89 66 -132 95
-138 95 -3 0 -64 -80 -134 -178 -127 -174 -129 -178 -109 -193 234 -176 711
-486 1026 -667 405 -233 553 -287 767 -281 114 4 121 5 203 45 175 84 266 219
277 410 7 109 -15 192 -77 292 -32 50 -36 62 -22 62 63 1 213 109 271 195 58
87 75 156 68 279 -12 234 -99 343 -414 520 -306 172 -600 359 -890 567 -68 49
-126 89 -128 89 -2 0 -61 -80 -132 -178z m766 -767 c65 -33 101 -76 101 -123
0 -42 -29 -95 -61 -112 -36 -20 -112 -7 -173 30 l-54 33 65 99 c37 54 68 98
70 98 2 0 25 -11 52 -25z m-358 -564 c13 -10 43 -28 66 -40 23 -11 58 -37 78
-56 33 -34 35 -39 35 -102 0 -63 -1 -67 -40 -105 -39 -39 -41 -40 -98 -36 -48
3 -76 14 -154 58 l-95 53 80 124 c43 68 85 123 92 123 7 0 23 -8 36 -19z"/>
<path d="M12579 3122 c-42 -31 -91 -71 -110 -87 -19 -17 -49 -37 -66 -44 -23
-9 -29 -17 -26 -35 4 -20 -3 -25 -73 -45 -96 -28 -163 -62 -285 -142 -214
-143 -358 -342 -359 -496 0 -44 -12 -47 -46 -11 -16 17 -54 42 -84 57 -47 22
-69 25 -150 26 -89 0 -100 -3 -164 -35 -39 -19 -94 -57 -124 -84 -38 -36 -56
-46 -61 -37 -6 10 -24 5 -71 -19 -66 -34 -394 -164 -616 -245 l-131 -48 25
-66 c13 -36 44 -122 68 -191 l45 -124 -54 54 c-62 64 -164 127 -257 160 -97
35 -290 40 -420 12 -203 -45 -318 -102 -446 -223 -121 -113 -203 -303 -205
-471 -1 -127 28 -253 82 -350 16 -29 29 -56 29 -60 0 -5 -15 -8 -32 -8 -18 0
-51 -7 -73 -15 -22 -8 -56 -14 -75 -15 l-36 0 -109 700 -109 700 -36 0 c-20 0
-124 -13 -230 -29 -107 -17 -278 -38 -380 -47 l-185 -17 14 -209 14 -209 109
7 108 7 0 -47 c0 -49 -3 -52 -47 -35 -55 21 -200 29 -282 14 -276 -49 -462
-231 -525 -514 -22 -95 -22 -304 -1 -381 21 -80 21 -80 -32 -80 l-48 0 6 407
c4 225 7 546 8 716 l1 307 -154 0 c-84 0 -269 7 -411 15 -142 9 -258 15 -260
13 -1 -2 -11 -96 -21 -209 l-19 -206 104 -7 c57 -3 105 -7 107 -9 1 -1 -2 -67
-6 -147 -4 -80 -15 -289 -25 -465 -9 -176 -19 -335 -21 -354 l-5 -34 -116 7
c-63 4 -138 11 -166 16 -27 6 -74 10 -103 10 -53 0 -53 0 -49 28 9 48 105 852
105 877 0 21 -5 25 -31 25 l-31 0 31 25 c16 14 42 52 57 83 23 48 28 70 28
147 1 110 -15 147 -101 225 -75 68 -126 91 -224 97 -74 6 -83 4 -144 -26 -82
-41 -139 -99 -176 -180 -27 -59 -29 -71 -23 -135 3 -39 15 -91 25 -115 l19
-43 -28 5 c-103 22 -253 49 -256 46 -2 -2 -21 -97 -43 -210 l-39 -206 65 -12
c36 -6 85 -14 109 -17 23 -4 42 -12 42 -18 0 -6 -18 -116 -42 -243 l-42 -233
-32 0 c-17 0 -51 7 -74 15 -23 8 -61 15 -84 15 l-42 0 -44 -201 c-24 -111 -46
-197 -47 -192 -2 6 14 94 37 198 22 103 40 193 40 200 0 7 -25 17 -63 24 -34
7 -85 19 -113 27 l-50 14 113 438 c62 240 113 442 113 448 0 6 -18 14 -41 18
-48 8 -304 80 -585 165 -233 70 -382 124 -732 263 -139 55 -255 98 -257 96 -2
-2 -40 -87 -83 -189 l-79 -186 51 -25 c28 -15 72 -35 98 -47 27 -11 48 -23 48
-26 0 -4 -42 -111 -94 -238 -103 -252 -128 -335 -127 -413 1 -107 79 -243 188
-329 127 -99 276 -151 471 -162 102 -5 113 -8 109 -24 -3 -11 2 -19 17 -22 11
-2 122 -32 246 -65 560 -152 1040 -253 1510 -318 360 -49 888 -84 1277 -84
l292 0 3 85 3 85 60 -48 c68 -55 155 -102 233 -127 42 -14 84 -16 225 -13
l172 3 65 34 c47 25 76 34 105 32 94 -4 481 48 923 126 21 4 32 11 32 23 0 9
-14 85 -31 169 -17 84 -28 155 -25 158 3 3 36 -23 74 -58 122 -115 231 -156
444 -166 159 -7 249 6 386 58 284 108 469 315 499 559 l8 65 69 -197 c38 -110
74 -198 80 -198 61 0 1060 417 1114 465 3 3 -175 365 -184 374 -2 3 -46 -14
-97 -37 -50 -23 -97 -42 -103 -42 -10 0 -147 290 -140 297 2 2 15 -1 30 -7 15
-5 60 -10 100 -10 61 0 83 5 132 30 118 58 187 143 201 245 3 25 9 45 12 45 4
0 20 -14 37 -31 16 -17 56 -44 89 -59 l60 -27 -41 -23 -40 -23 144 -266 c80
-146 148 -270 153 -275 7 -8 196 90 302 156 41 26 47 34 47 64 0 31 3 34 28
34 141 0 448 165 598 321 92 95 129 154 161 257 22 70 25 95 21 175 -4 79 -9
101 -37 155 -18 35 -50 83 -72 106 -46 51 -138 102 -198 112 l-43 7 31 19 c17
11 31 22 31 25 0 9 -351 483 -358 483 -4 0 -41 -26 -83 -58z m-1960 -1668 c74
-172 135 -354 124 -365 -9 -9 -132 -57 -194 -76 -14 -4 -18 4 -20 41 -2 25 0
47 5 49 21 7 -59 203 -124 302 l-45 71 50 22 c27 12 59 22 70 22 11 0 34 9 50
19 17 10 34 15 38 11 4 -4 25 -47 46 -96z m-6397 -50 l66 -17 -15 -50 c-71
-239 -116 -376 -132 -397 -25 -34 -76 -38 -125 -9 -68 40 -68 41 32 317 60
167 68 183 86 178 12 -3 51 -13 88 -22z m3847 -437 c59 -49 105 -351 67 -441
-17 -42 -61 -76 -97 -76 -40 0 -85 43 -103 98 -41 129 -39 327 3 396 34 54 81
63 130 23z m1931 -73 c0 -60 -76 -114 -160 -114 -32 0 -48 7 -81 37 l-41 38
123 31 c157 40 159 41 159 8z"/>
</g>
</svg>
